# xmcd
#
# Track frame offsets:
#	150
#	13829
#	29524
#	44469
#
# Disc length: 775 seconds
#
# Revision: 3
# Processed by: cddbd v1.5.2PL0 Copyright (c) Steve Scherf et al.
# Submitted via: EasyCDDAExtractor 7.5.0.1
#
DISCID=2e030504
DTITLE=ANDY LEWIS and PAUL WELLER - Are You Trying To Be Lonely? [CDS)
DYEAR=1900
DGENRE=Blues
TTITLE0=Are You Trying To Be Lonely?
TTITLE1=Tell Me Once Again  You Love Me
TTITLE2=The Lazuli Affair
TTITLE3=Are You Trying To Be Lonely? (Instrumental)
EXTD=
EXTT0=
EXTT1=
EXTT2=
EXTT3=
PLAYORDER=
